<?xml version="1.0" standalone="no"?>
<!DOCTYPE svg PUBLIC "-//W3C//DTD SVG 20010904//EN"
 "http://www.w3.org/TR/2001/REC-SVG-20010904/DTD/svg10.dtd">
<svg version="1.0" xmlns="http://www.w3.org/2000/svg"
 width="341.000000pt" height="350.000000pt" viewBox="0 0 341.000000 350.000000"
 preserveAspectRatio="xMidYMid meet">

<g transform="translate(0.000000,350.000000) scale(0.100000,-0.100000)"
fill="#000000" stroke="none">
<path d="M77 3434 c-4 -4 -7 -283 -7 -621 0 -606 0 -613 20 -613 11 0 20 -4
20 -9 0 -4 205 -10 456 -13 412 -4 457 -6 466 -21 5 -10 19 -17 32 -17 16 0
26 -7 30 -22 3 -13 6 -470 6 -1015 0 -655 3 -993 10 -993 6 0 10 -9 10 -20 0
-18 7 -20 64 -20 45 0 69 5 80 16 14 14 16 117 16 990 l0 974 45 0 c33 0 45
-4 45 -15 0 -10 10 -15 30 -15 20 0 30 -5 30 -15 0 -8 9 -15 19 -15 11 0 26
-6 33 -14 8 -7 29 -17 46 -21 18 -3 32 -10 32 -15 0 -4 11 -11 25 -14 31 -8
65 -36 65 -53 0 -7 7 -13 15 -13 13 0 15 -106 15 -895 l0 -895 355 0 355 0 0
790 c0 696 2 790 15 790 8 0 15 7 15 15 0 13 56 15 444 15 l444 0 7 30 c4 17
11 30 16 30 5 0 9 14 9 30 0 17 -4 30 -10 30 -5 0 -10 7 -10 16 0 9 -9 18 -20
21 -11 3 -20 9 -20 14 0 5 -225 9 -519 9 l-519 0 -6 -22 c-3 -13 -6 -371 -6
-795 0 -760 0 -773 -20 -793 -18 -18 -33 -20 -180 -20 -137 0 -163 2 -180 17
-20 17 -20 28 -20 871 l0 853 -26 24 c-15 14 -35 25 -45 25 -11 0 -19 4 -19 9
0 5 -13 12 -30 16 -16 4 -30 13 -30 21 0 9 -11 14 -30 14 -20 0 -30 5 -30 15
0 10 -11 15 -35 15 -24 0 -35 5 -35 15 0 10 -10 15 -30 15 -20 0 -30 5 -30 15
0 10 -10 15 -30 15 -19 0 -30 5 -30 14 0 8 -16 15 -41 19 -23 3 -45 10 -48 15
-3 6 -19 14 -34 17 -15 4 -27 11 -27 15 0 4 -19 10 -41 13 -23 3 -45 10 -48
16 -4 5 -27 13 -51 17 -25 4 -48 12 -52 18 -4 6 -40 12 -80 14 -40 3 -76 9
-80 16 -5 8 -110 12 -353 14 l-345 3 0 185 0 184 355 0 c296 0 355 -2 355 -14
0 -10 19 -15 71 -18 38 -2 73 -9 77 -14 4 -6 27 -14 52 -17 24 -3 46 -11 48
-16 2 -6 21 -14 42 -17 21 -4 41 -13 44 -20 3 -8 19 -14 36 -14 20 0 30 -5 30
-15 0 -10 10 -15 30 -15 20 0 30 -5 30 -15 0 -10 10 -15 29 -15 16 0 31 -6 35
-15 3 -8 17 -15 31 -15 16 0 25 -6 25 -15 0 -10 10 -15 30 -15 20 0 30 -5 30
-15 0 -10 11 -15 35 -15 24 0 35 -5 35 -15 0 -10 10 -15 30 -15 20 0 30 -5 30
-15 0 -10 10 -15 30 -15 20 0 30 -5 30 -15 0 -10 10 -15 30 -15 18 0 33 -6 36
-15 4 -8 18 -15 34 -15 16 0 35 -7 43 -15 8 -8 35 -18 59 -21 23 -4 46 -11 49
-17 4 -5 31 -12 60 -15 30 -3 57 -10 61 -16 4 -5 40 -12 80 -14 40 -3 76 -9
80 -16 5 -8 150 -12 508 -14 450 -4 501 -2 506 12 3 9 12 16 20 16 12 0 14 91
12 603 l-3 602 -492 3 c-434 2 -493 0 -493 -13 0 -12 -13 -15 -60 -15 -44 0
-60 -4 -60 -14 0 -9 -16 -15 -46 -19 -26 -2 -49 -9 -53 -15 -3 -5 -17 -13 -31
-17 -14 -4 -28 -12 -31 -17 -3 -5 -25 -12 -48 -15 -25 -4 -41 -11 -41 -19 0
-9 -11 -14 -30 -14 -20 0 -30 -5 -30 -15 0 -10 -10 -15 -30 -15 -20 0 -30 -5
-30 -15 0 -10 -11 -15 -35 -15 -24 0 -35 -5 -35 -15 0 -10 -10 -15 -30 -15
-20 0 -30 -5 -30 -15 0 -12 -13 -15 -60 -15 -47 0 -60 3 -60 15 0 10 -10 15
-30 15 -18 0 -33 6 -36 15 -4 9 -19 15 -35 15 -19 0 -29 5 -29 15 0 10 -10 15
-30 15 -19 0 -30 5 -30 14 0 8 -16 15 -41 19 -23 3 -45 10 -48 15 -3 6 -19 14
-34 17 -15 4 -27 11 -27 15 0 5 -20 12 -44 15 -25 4 -47 13 -50 21 -3 9 -21
14 -46 14 -24 0 -48 7 -56 15 -11 10 -36 15 -79 15 -42 0 -65 4 -67 13 -4 9
-101 13 -429 15 -234 1 -428 0 -432 -4z m3113 -319 c0 -148 -2 -168 -19 -186
-18 -19 -30 -20 -455 -17 -310 2 -439 6 -444 14 -4 6 -38 13 -75 16 -38 2 -71
9 -75 15 -4 5 -27 13 -52 16 -24 3 -46 11 -48 16 -2 6 -16 11 -31 11 -32 0
-61 31 -61 65 0 20 6 27 30 32 17 3 30 12 30 19 0 9 11 14 30 14 20 0 30 5 30
15 0 10 11 15 35 15 24 0 35 5 35 15 0 11 11 15 40 15 29 0 40 4 40 15 0 11
12 15 45 15 27 0 47 5 52 14 5 7 32 16 63 18 30 3 56 11 58 17 3 8 112 11 388
11 l384 0 0 -165z m-2158 122 c7 -13 23 -17 62 -17 39 0 55 -4 60 -15 3 -9 18
-15 36 -15 20 0 30 -5 30 -15 0 -11 12 -15 45 -15 33 0 45 -4 45 -15 0 -10 10
-15 30 -15 20 0 30 -5 30 -15 0 -10 10 -15 30 -15 20 0 30 -5 30 -15 0 -10 10
-15 30 -15 19 0 30 -5 30 -14 0 -8 15 -17 35 -20 19 -4 35 -11 35 -16 0 -4 14
-11 30 -15 17 -4 30 -10 30 -15 0 -5 14 -11 30 -15 17 -4 30 -10 30 -15 0 -5
14 -11 30 -15 17 -4 30 -13 30 -21 0 -9 11 -14 29 -14 16 0 31 -5 33 -11 2 -5
22 -13 46 -16 26 -3 42 -11 42 -19 0 -9 12 -14 35 -14 24 0 35 -5 35 -15 0
-12 13 -15 60 -15 47 0 60 -3 60 -15 0 -12 14 -15 65 -15 51 0 65 -3 65 -15 0
-13 59 -15 475 -15 416 0 475 -2 475 -15 0 -8 7 -15 15 -15 13 0 15 -25 15
-169 0 -166 0 -169 -22 -175 -31 -8 -580 -8 -806 1 -142 5 -182 9 -182 20 0 9
-15 13 -50 13 -38 0 -50 4 -50 15 0 11 -12 15 -50 15 -38 0 -50 4 -50 15 0 11
-11 15 -40 15 -29 0 -40 4 -40 15 0 10 -11 15 -35 15 -24 0 -35 5 -35 15 0 10
-10 15 -30 15 -20 0 -30 5 -30 15 0 10 -10 15 -30 15 -20 0 -30 5 -30 15 0 10
-10 15 -30 15 -19 0 -30 5 -30 14 0 7 -14 16 -31 20 -16 3 -37 13 -45 21 -9 8
-24 15 -35 15 -10 0 -19 4 -19 9 0 5 -13 12 -30 16 -16 4 -30 11 -30 16 0 5
-12 12 -27 15 -15 4 -34 13 -41 21 -7 7 -29 13 -48 13 -24 0 -34 5 -34 15 0
10 -10 15 -30 15 -20 0 -30 5 -30 15 0 11 -12 15 -50 15 -36 0 -50 4 -50 14 0
10 -19 15 -72 18 -44 2 -73 9 -76 16 -3 9 -93 12 -373 12 -321 0 -369 2 -369
15 0 8 -7 15 -15 15 -13 0 -15 25 -15 169 0 153 2 170 18 175 9 3 187 4 396 2
342 -2 379 -4 388 -19z"/>
</g>
</svg>
