<svg width="100%" height="100%" id="svg" viewBox="0 0 1440 400" xmlns="http://www.w3.org/2000/svg" class="transition duration-300 ease-in-out delay-150"><defs><linearGradient id="gradient" x1="50%" y1="100%" x2="50%" y2="0%"><stop offset="5%" stop-color="#9900ef44"></stop><stop offset="95%" stop-color="#abb8c344"></stop></linearGradient></defs><path d="M 0,400 C 0,400 0,80 0,80 C 49.22517116497923,65.02176901319095 98.45034232995846,50.04353802638188 146,52 C 193.54965767004154,53.95646197361812 239.4238018451453,72.84761690766342 287,73 C 334.5761981548547,73.15238309233658 383.85445028946043,54.565994342964395 432,53 C 480.14554971053957,51.434005657035605 527.158396997013,66.88840572047899 573,78 C 618.841603002987,89.11159427952101 663.5119617224879,95.88038277511961 720,89 C 776.4880382775121,82.11961722488039 844.7937561130351,61.59006317904254 888,55 C 931.2062438869649,48.40993682095746 949.313013825372,55.75936450871025 985,59 C 1020.686986174628,62.24063549128975 1073.9541885854767,61.37247878611647 1126,62 C 1178.0458114145233,62.62752121388353 1228.870231832721,64.75072034682387 1281,68 C 1333.129768167279,71.24927965317613 1386.5648840836395,75.62463982658807 1440,80 C 1440,80 1440,400 1440,400 Z" stroke="none" stroke-width="0" fill="url(#gradient)" class="transition-all duration-300 ease-in-out delay-150 path-0"></path><defs><linearGradient id="gradient" x1="50%" y1="100%" x2="50%" y2="0%"><stop offset="5%" stop-color="#9900ef66"></stop><stop offset="95%" stop-color="#abb8c366"></stop></linearGradient></defs><path d="M 0,400 C 0,400 0,160 0,160 C 60.01810780089349,157.62319913294033 120.03621560178698,155.24639826588069 163,150 C 205.96378439821302,144.75360173411931 231.8732453937456,136.63760606941764 273,138 C 314.1267546062544,139.36239393058236 370.4708028232308,150.20317745644874 429,155 C 487.5291971767692,159.79682254355126 548.243543313331,158.54968410478733 597,168 C 645.756456686669,177.45031589521267 682.555023923445,197.5980861244019 720,189 C 757.444976076555,180.4019138755981 795.5363609928891,143.05797139760503 851,138 C 906.4636390071109,132.94202860239497 979.2995321049987,160.17002828517803 1032,161 C 1084.7004678950013,161.82997171482197 1117.2655105871158,136.26191546168283 1156,135 C 1194.7344894128842,133.73808453831717 1239.6384255465384,156.78230986809064 1288,165 C 1336.3615744534616,173.21769013190936 1388.180787226731,166.60884506595468 1440,160 C 1440,160 1440,400 1440,400 Z" stroke="none" stroke-width="0" fill="url(#gradient)" class="transition-all duration-300 ease-in-out delay-150 path-1"></path><defs><linearGradient id="gradient" x1="50%" y1="100%" x2="50%" y2="0%"><stop offset="5%" stop-color="#9900ef88"></stop><stop offset="95%" stop-color="#abb8c388"></stop></linearGradient></defs><path d="M 0,400 C 0,400 0,240 0,240 C 59.80418462026488,253.5707790319596 119.60836924052975,267.1415580639192 166,266 C 212.39163075947025,264.8584419360808 245.37070765814588,249.00454677628275 293,251 C 340.6292923418541,252.99545322371725 402.9088001268869,272.84025483094985 446,265 C 489.0911998731131,257.15974516905015 512.9940918343069,221.63443389991804 560,210 C 607.0059081656931,198.36556610008196 677.1148325358853,210.622009569378 736,218 C 794.8851674641147,225.377990430622 842.5465780221523,227.87752782257 890,234 C 937.4534219778477,240.12247217743 984.6988553755057,249.86787914034204 1023,253 C 1061.3011446244943,256.13212085965796 1090.6580004758252,252.65095561606174 1137,246 C 1183.3419995241748,239.34904438393826 1246.6691427211929,229.52829839541093 1300,228 C 1353.3308572788071,226.47170160458907 1396.6654286394037,233.23585080229452 1440,240 C 1440,240 1440,400 1440,400 Z" stroke="none" stroke-width="0" fill="url(#gradient)" class="transition-all duration-300 ease-in-out delay-150 path-2"></path><defs><linearGradient id="gradient" x1="50%" y1="100%" x2="50%" y2="0%"><stop offset="5%" stop-color="#9900efff"></stop><stop offset="95%" stop-color="#abb8c3ff"></stop></linearGradient></defs><path d="M 0,400 C 0,400 0,320 0,320 C 63.399534748473414,333.94179068968253 126.79906949694683,347.883581379365 167,343 C 207.20093050305317,338.116418620635 224.2032567606862,314.40746517222243 268,314 C 311.7967432393138,313.59253482777757 382.38790346030834,336.4865579317455 431,343 C 479.61209653969166,349.5134420682545 506.24512939808085,339.6463031007957 557,336 C 607.7548706019192,332.3536968992043 682.6315789473684,334.9282296650718 745,340 C 807.3684210526316,345.0717703349282 857.2285548124455,352.6407782389172 889,346 C 920.7714451875545,339.3592217610828 934.4542018028496,318.5086573792593 982,311 C 1029.5457981971504,303.4913426207407 1110.954637976156,309.3245922440456 1165,316 C 1219.045362023844,322.6754077559544 1245.7272462925268,330.1929736445584 1287,331 C 1328.2727537074732,331.8070263554416 1384.1363768537367,325.9035131777208 1440,320 C 1440,320 1440,400 1440,400 Z" stroke="none" stroke-width="0" fill="url(#gradient)" class="transition-all duration-300 ease-in-out delay-150 path-3"></path></svg>